<svg width="22" height="22" viewBox="0 0 22 22" fill="none" xmlns="http://www.w3.org/2000/svg">
<path fill-rule="evenodd" clip-rule="evenodd" d="M11.0002 20.1663C16.0628 20.1663 20.1668 16.0623 20.1668 10.9997C20.1668 5.93706 16.0628 1.83301 11.0002 1.83301C5.93755 1.83301 1.8335 5.93706 1.8335 10.9997C1.8335 16.0623 5.93755 20.1663 11.0002 20.1663ZM11.0002 4.45206C11.7234 4.45206 12.3097 5.03835 12.3097 5.76158V12.3092C12.3097 13.0324 11.7234 13.6187 11.0002 13.6187C10.2769 13.6187 9.69064 13.0324 9.69064 12.3092V5.76158C9.69064 5.03835 10.2769 4.45206 11.0002 4.45206ZM11.0002 17.5473C11.7957 17.5473 12.4407 16.961 12.4407 16.2378C12.4407 15.5145 11.7957 14.9282 11.0002 14.9282C10.2046 14.9282 9.55972 15.5145 9.55972 16.2378C9.55972 16.961 10.2046 17.5473 11.0002 17.5473Z" fill="#E75A5A"/>
</svg>
