<svg width="24" height="24" viewBox="0 0 24 24" fill="none" xmlns="http://www.w3.org/2000/svg">
<path d="M6.59998 9.30176H10.2" stroke="#121922" stroke-width="1.7" stroke-linecap="round" stroke-linejoin="round"/>
<path d="M19.9497 10.2021H17.6079C16.0014 10.2021 14.7 11.4108 14.7 12.9021C14.7 14.3934 16.0023 15.6021 17.607 15.6021H19.9497C20.0253 15.6021 20.0622 15.6021 20.0937 15.6003C20.5797 15.5706 20.9667 15.2115 20.9982 14.7606C21 14.7318 21 14.6967 21 14.6274V11.1768C21 11.1075 21 11.0724 20.9982 11.0436C20.9658 10.5927 20.5797 10.2336 20.0937 10.2039C20.0622 10.2021 20.0253 10.2021 19.9497 10.2021Z" stroke="#121922" stroke-width="1.7"/>
<path d="M20.0685 10.2021C19.9983 8.51735 19.7733 7.48415 19.0452 6.75695C17.9913 5.70215 16.2939 5.70215 12.9 5.70215H10.2C6.8061 5.70215 5.1087 5.70215 4.0548 6.75695C3 7.81085 3 9.50825 3 12.9021C3 16.296 3 17.9934 4.0548 19.0473C5.1087 20.1021 6.8061 20.1021 10.2 20.1021H12.9C16.2939 20.1021 17.9913 20.1021 19.0452 19.0473C19.7733 18.3201 19.9992 17.2869 20.0685 15.6021" stroke="#121922" stroke-width="1.7"/>
<path d="M6.59998 5.70243L9.96148 3.47313C10.4342 3.16563 10.986 3.00195 11.55 3.00195C12.1139 3.00195 12.6657 3.16563 13.1385 3.47313L16.5 5.70243" stroke="#121922" stroke-width="1.7" stroke-linecap="round"/>
<path d="M17.3929 12.9023H17.4019" stroke="#121922" stroke-width="1.8" stroke-linecap="round" stroke-linejoin="round"/>
</svg>
