<svg width="24" height="24" viewBox="0 0 24 24" fill="none" xmlns="http://www.w3.org/2000/svg">
<path d="M6.84615 3C5.20041 3 4 4.42002 4 6V18C4 19.58 5.20041 21 6.84615 21H17.1538C18.7996 21 20 19.58 20 18V8.41806C20 7.88308 19.7857 7.3704 19.4049 6.9946L15.9417 3.57655C15.5675 3.20713 15.0627 3 14.5368 3H6.84615Z" stroke="#121922" stroke-width="2"/>
<path fill-rule="evenodd" clip-rule="evenodd" d="M17.8485 14.3485C17.9657 14.4657 17.9657 14.6556 17.8485 14.7728L14.7425 17.8789C14.6253 17.996 14.4354 17.996 14.3182 17.8789L12.2121 15.7728C12.095 15.6556 12.095 15.4657 12.2121 15.3485L12.8485 14.7121C12.9657 14.595 13.1556 14.595 13.2728 14.7121L14.5303 15.9697L16.7879 13.7121C16.905 13.595 17.095 13.595 17.2121 13.7121L17.8485 14.3485Z" fill="#121922"/>
</svg>

