<svg width="200" height="200" viewBox="0 0 200 200" fill="none" xmlns="http://www.w3.org/2000/svg">
    <rect x="0.5" y="0.5" width="199" height="199" rx="3.5" fill="#D4DFF3" fill-opacity="0.17" stroke="#ECF2FC"
        stroke-linecap="round" stroke-linejoin="round" />
    <path opacity="0.05"
        d="M16.1341 200H184.813C186.461 199.981 190.501 200 190.501 200C191.001 198.5 191.001 195.38 191.001 193.73C191.001 161.918 150.93 149.233 133.728 145.236H133.729C133.522 145.178 133.379 144.99 133.378 144.775V137.93C137.355 132.747 140.324 126.862 142.136 120.582C146.662 116.125 148.657 109.152 149.729 105.269C151.484 99.0916 153.24 90.1392 148.399 83.7403L148.196 83.4629C150.523 72.1614 153.424 45.6965 133.286 32.2479C135.645 29.8405 136.926 26.5752 136.833 23.2041C136.81 22.8803 136.656 22.581 136.409 22.372C136.176 22.1759 135.881 22.0701 135.577 22.0765C135.317 22.0765 110.136 24.9432 97.9992 22.4275C85.5103 19.8562 71.8198 29.3258 69.0673 39.0169C64.3647 39.6323 60.0847 42.0526 57.1323 45.768C51.5894 52.5554 49.9451 63.3575 52.1255 77.857C52.2737 79.7071 52.4954 81.5557 52.8279 83.4059L52.6062 83.6833C47.7839 90.0823 49.539 99.0342 51.2943 105.212C52.3652 109.021 54.3615 116.068 58.8695 120.525H58.8682C60.6698 126.848 63.6404 132.776 67.6264 138.004V144.736C67.6329 144.954 67.486 145.146 67.2746 145.198C50.0379 149.174 10.0014 161.843 10.0014 193.691H10.0027C9.99235 195.339 9.85302 198.818 11 199.998C11 199.998 14.4913 199.964 16.1358 199.998L16.1341 200ZM100.474 169.593C89.7992 169.744 79.7107 164.722 73.3882 156.112C76.141 154.571 78.2363 152.079 79.2828 149.101C82.1051 150.938 85.1388 152.428 88.3169 153.54C96.182 156.326 104.765 156.326 112.63 153.54C115.804 152.384 118.83 150.857 121.646 148.99C122.677 152.005 124.781 154.534 127.559 156.092C121.239 164.709 111.151 169.738 100.474 169.593ZM62.0253 102.198C59.8087 94.3571 60.7507 91.5085 61.4892 90.5098C62.0163 89.8415 62.8411 89.4816 63.6878 89.5474H64.2239C64.8708 89.5899 65.4301 89.1036 65.4804 88.4559C65.4804 88.2895 66.8658 71.3849 76.8793 65.2997C81.8861 62.2486 88.2973 62.3776 95.946 65.6325C111.558 72.3658 123.289 71.94 130.383 70.3131C138.494 76.3059 136.147 85.8682 135.593 87.7362V87.9762C135.456 88.358 135.526 88.7851 135.777 89.1037C136.031 89.4198 136.427 89.5875 136.83 89.5476C137.824 89.3618 138.842 89.7127 139.509 90.4726C140.267 91.4711 141.191 94.3196 138.973 102.161C136.128 112.203 133.818 113.148 133.171 113.259H133.173C132.62 113.295 132.167 113.71 132.082 114.257C130.42 124.967 121.921 138.301 108.859 142.999C103.434 144.93 97.5083 144.93 92.0825 142.999C78.4851 138.208 70.5401 124.725 68.9149 114.239C68.8298 113.692 68.3775 113.277 67.8246 113.241C67.2151 113.203 64.8503 112.242 62.0241 102.198L62.0253 102.198Z"
        fill="#0024CB" />
</svg>